<?xml version="1.0" encoding="UTF-8"?>
<svg version="1.1" xmlns="http://www.w3.org/2000/svg" width="2056" height="2056">
<path d="M0 0 C678.48 0 1356.96 0 2056 0 C2056 678.48 2056 1356.96 2056 2056 C1377.52 2056 699.04 2056 0 2056 C0 1377.52 0 699.04 0 0 Z M75 75 C75 364.74 75 654.48 75 953 C703.98 953 1332.96 953 1981 953 C1981 663.26 1981 373.52 1981 75 C1352.02 75 723.04 75 75 75 Z M75 1109 C75 1396.76 75 1684.52 75 1981 C703.98 1981 1332.96 1981 1981 1981 C1981 1693.24 1981 1405.48 1981 1109 C1352.02 1109 723.04 1109 75 1109 Z " fill="#000000" transform="translate(0,0)"/>
</svg>
