<?xml version="1.0" encoding="UTF-8"?>
<svg version="1.1" xmlns="http://www.w3.org/2000/svg" width="2056" height="2056">
<path d="M0 0 C678.48 0 1356.96 0 2056 0 C2056 678.48 2056 1356.96 2056 2056 C1377.52 2056 699.04 2056 0 2056 C0 1377.52 0 699.04 0 0 Z M75 75 C75 684.84 75 1294.68 75 1923 C79.41231916 1919.21801215 83.63716576 1915.50843324 87.71578151 1911.40936233 C88.51703076 1910.61018371 88.51703076 1910.61018371 89.33446686 1909.79486006 C91.11665771 1908.01606441 92.89528219 1906.23374634 94.67393535 1904.45141381 C95.97411438 1903.15222669 97.2745125 1901.8532588 98.575109 1900.55448961 C102.1614437 1896.9719175 105.74464919 1893.38622972 109.32736729 1889.80004137 C113.23525506 1885.88947341 117.1460463 1881.98181089 121.05646822 1878.07377729 C127.9402975 1871.19334627 134.82225568 1864.3110481 141.70301496 1857.427547 C149.12588806 1850.0017294 156.54983233 1842.5769851 163.97511215 1835.15357403 C164.68115755 1834.44770426 164.68115755 1834.44770426 165.4014665 1833.72757449 C167.8047663 1831.32488219 170.20808347 1828.92220726 172.61140645 1826.51953815 C190.1705257 1808.96511981 207.72717031 1791.40822818 225.28257179 1773.85009193 C243.07948346 1756.0504228 260.87748119 1738.25184067 278.67681122 1720.45458984 C279.23787937 1719.8935862 279.79894753 1719.33258256 280.37701775 1718.75457881 C285.51873306 1713.61345502 290.66045956 1708.47234242 295.80219951 1703.33124326 C308.69632255 1690.43872454 321.5902714 1677.54603161 334.48410237 1664.65322077 C335.37042574 1663.76696776 335.37042574 1663.76696776 336.27465463 1662.86281064 C365.41303939 1633.72670553 394.54951554 1604.58869199 423.68580437 1575.45049095 C424.96236248 1574.1738492 426.2389206 1572.89720745 427.51547872 1571.6205657 C428.14814228 1570.98786069 428.78080585 1570.35515567 429.43264103 1569.70327777 C437.77549188 1561.35988042 446.11834768 1553.01648801 454.46121669 1544.67310882 C455.09890946 1544.03537689 455.73660222 1543.39764496 456.39361901 1542.74058782 C485.92859057 1513.203816 515.46467579 1483.66815794 545.00100859 1454.13274737 C548.22197101 1450.91188475 551.44293128 1447.69101998 554.66389178 1444.47015545 C564.37189592 1434.7624419 574.07990324 1425.05473152 583.78791712 1415.34702771 C613.3921622 1385.74372721 642.99623509 1356.14025452 672.60015965 1326.53663349 C673.25933786 1325.87746214 673.91851608 1325.2182908 674.59766939 1324.53914456 C717.29404377 1281.84320899 759.9896481 1239.14650346 802.68469906 1196.4492445 C803.36640091 1195.76750753 804.04810275 1195.08577057 804.75046223 1194.3833749 C827.58508294 1171.5475778 850.41966382 1148.71174088 873.25424063 1125.87589988 C942.31888873 1056.80743075 1011.38440093 987.73982606 1134.74073647 864.38951937 C1157.57814323 841.55337578 1180.41554265 818.71722486 1203.25290585 795.88103771 C1204.27553851 794.85845792 1204.27553851 794.85845792 1205.31883041 793.81521995 C1247.9989962 751.13725872 1290.67855115 708.45868672 1333.35739231 665.77940083 C1334.01630604 665.12048034 1334.67521978 664.46155985 1335.35410059 663.78267207 C1364.93744902 634.19901696 1394.52063166 604.61519608 1424.10366087 575.03122176 C1433.80533764 565.32923543 1443.50702202 555.62725672 1453.20870899 545.92528059 C1456.42713218 542.70676141 1459.64555469 539.48824155 1462.86397561 536.26972011 C1492.40177292 506.73100315 1521.9398981 477.19261417 1551.47906184 447.65526366 C1552.11662503 447.01773944 1552.75418822 446.38021523 1553.41107151 445.72337209 C1561.75298086 437.38197456 1570.09490562 429.04059244 1578.43683224 420.69921218 C1579.38551716 419.75058938 1579.38551716 419.75058938 1580.35336743 418.78280248 C1581.62935596 417.50689751 1582.90534453 416.23099258 1584.18133313 414.95508768 C1613.28074357 385.85758118 1642.37985659 356.75977744 1671.47715962 327.66016352 C1672.06693944 327.07033702 1672.65671925 326.48051051 1673.26437118 325.87281048 C1686.12801333 313.00813845 1698.99151069 300.14332165 1711.85486552 287.27836234 C1716.98422892 282.148363 1722.11360999 277.01838135 1727.24299622 271.88840485 C1727.80254031 271.32879534 1728.3620844 270.76918583 1728.93858437 270.19261846 C1746.71742215 252.4117186 1764.49779556 234.63235534 1782.27904781 216.85387003 C1799.77270654 199.36291994 1817.26485546 181.87046157 1834.75477601 164.37577346 C1837.14506597 161.98483228 1839.53537333 159.5939085 1841.92569108 157.2029951 C1842.39367981 156.73488838 1842.86166855 156.26678165 1843.34383876 155.78448988 C1851.20032275 147.92612191 1859.05878249 140.06973218 1866.91776976 132.21386781 C1873.7000723 125.43399068 1880.48059334 118.6523355 1887.25960391 111.86916682 C1891.11478155 108.01172758 1894.97076869 104.15510667 1898.82893289 100.30065435 C1902.31994526 96.812972 1905.80870576 93.32305442 1909.29557875 89.83123378 C1910.55552625 88.57031991 1911.8163339 87.31026487 1913.07805041 86.05112113 C1914.77440236 84.35799301 1916.4677139 82.66188439 1918.16022533 80.96491851 C1918.9068633 80.22189809 1918.9068633 80.22189809 1919.66858487 79.46386716 C1921.99696613 77.56320388 1921.99696613 77.56320388 1923 75 C1313.16 75 703.32 75 75 75 Z M1976.52331539 136.34423258 C1976.02605358 136.8439061 1975.52879176 137.34357962 1975.0164614 137.85839477 C1974.48856017 138.38491557 1973.96065895 138.91143638 1973.41676071 139.45391236 C1971.61970663 141.24751659 1969.826287 143.0447133 1968.03278345 144.84186739 C1966.73614273 146.13751816 1965.4392827 147.4329495 1964.14222178 148.72817961 C1960.53769933 152.32891099 1956.93634238 155.93279455 1953.33544284 159.5371485 C1949.41823226 163.45702441 1945.49813577 167.37401236 1941.57839581 171.29135868 C1934.66879701 178.19754943 1927.76108249 185.10562052 1920.85455518 192.01488286 C1913.3994848 199.47289222 1905.94335065 206.9298357 1898.48587442 214.3854394 C1898.01408302 214.85711371 1897.54229162 215.32878803 1897.05620351 215.8147555 C1894.64753983 218.22281172 1892.23885876 220.63085054 1889.83017186 223.03888353 C1872.20751666 240.65683122 1854.58734425 258.27726033 1836.96840858 275.89892769 C1819.10124818 293.76884338 1801.23300477 311.63767514 1783.36342621 329.50517273 C1782.51921021 330.34929195 1782.51921021 330.34929195 1781.65793935 331.21046409 C1776.50041625 336.36739568 1771.34288196 341.52431608 1766.18533422 346.68122301 C1753.25020977 359.61474292 1740.31525967 372.54843719 1727.38042748 385.48224938 C1726.78759692 386.07503303 1726.19476637 386.66781669 1725.58397125 387.27856349 C1696.33377886 416.52647501 1667.08549656 445.77629647 1637.83740044 475.02630424 C1636.555574 476.30821431 1635.27374757 477.59012438 1633.99192113 478.87203444 C1633.35664765 479.50734938 1632.72137418 480.14266431 1632.06684999 480.79723121 C1623.68976515 489.17486254 1615.31267537 497.55248893 1606.93557239 505.93010211 C1606.29527873 506.57043492 1605.65498508 507.21076774 1604.99528859 507.87050458 C1575.35160337 537.51598935 1545.70680531 567.1603612 1516.06175907 596.80448497 C1512.8297792 600.03636504 1509.59780148 603.26824726 1506.36582352 606.50012925 C1496.62475254 616.24090965 1486.88367838 625.98168687 1477.14259765 635.72245752 C1447.43621229 665.42789825 1417.72999916 695.1335112 1388.02393436 724.8392725 C1387.36244741 725.50075258 1386.70096046 726.16223266 1386.01942845 726.8437576 C1343.16598134 769.69676583 1300.31330453 812.55054427 1257.46118069 855.40487576 C1256.77685786 856.0892337 1256.09253503 856.77359165 1255.38747515 857.47868771 C1232.46454214 880.40279714 1209.54164893 903.32694638 1186.6187598 926.2510997 C1117.29431651 995.57936356 1047.96900986 1064.90676373 924.15971801 1188.71002615 C901.2414203 1211.6270607 878.32312992 1234.54410259 855.40487576 1257.46118069 C854.72071181 1258.14530938 854.03654787 1258.82943808 853.33165169 1259.53429795 C810.50021346 1302.3635316 767.66938609 1345.19337605 724.8392725 1388.02393436 C724.1780093 1388.68520432 723.5167461 1389.34647428 722.83544462 1390.02778272 C693.14630605 1419.71722798 663.45733327 1449.406839 633.76851391 1479.09660345 C624.03198038 1488.83344655 614.29543923 1498.57028203 604.55889549 1508.30711492 C601.3288758 1511.53723061 598.09885678 1514.76734698 594.86883935 1517.99746493 C565.22315839 1547.64406558 535.57714947 1577.29033816 505.93010211 1606.93557239 C505.29017358 1607.57546194 504.65024506 1608.21535149 503.99092476 1608.87463164 C495.61797221 1617.24707236 487.24500426 1625.61949768 478.87203444 1633.99192113 C478.23721773 1634.62669643 477.60240102 1635.26147173 476.94834743 1635.91548265 C475.66759547 1637.19615106 474.38684346 1638.47681943 473.10609142 1639.75748776 C443.89734244 1668.96433277 414.68889095 1698.17147506 385.48224938 1727.38042748 C384.89024228 1727.97248126 384.29823519 1728.56453505 383.68828848 1729.17452986 C370.77595552 1742.08789272 357.86376733 1755.00140034 344.95172167 1767.91505048 C339.80288552 1773.06452256 334.65403171 1778.21397696 329.50517273 1783.36342621 C328.9435028 1783.92516155 328.38183287 1784.4868969 327.80314265 1785.06565452 C309.95665643 1802.91420284 292.10863455 1820.76121453 274.25973386 1838.6073483 C256.6993308 1856.1650427 239.14043758 1873.72424542 221.5837727 1891.28567784 C219.18434333 1893.68575842 216.78489656 1896.08582162 214.3854394 1898.48587442 C213.91566069 1898.95577113 213.44588197 1899.42566783 212.96186754 1899.90980383 C205.07528966 1907.79826569 197.18673602 1915.6847493 189.29765485 1923.57070757 C182.48933695 1930.37660006 175.68280055 1937.18427062 168.87777462 1943.99345466 C165.00778464 1947.86570623 161.13698515 1951.73713948 157.26400862 1955.60640414 C153.75958649 1959.10749626 150.25741617 1962.61082364 146.75713342 1966.11605405 C145.49233772 1967.38181612 144.22668187 1968.64671935 142.96011717 1969.91071129 C141.25724944 1971.61035521 139.55742198 1973.31297971 137.85839477 1975.0164614 C137.35872125 1975.51372322 136.85904772 1976.01098504 136.34423258 1976.52331539 C134.00799077 1978.4297337 134.00799077 1978.4297337 133 1981 C742.84 1981 1352.68 1981 1981 1981 C1981 1371.16 1981 761.32 1981 133 C1979.00063521 133 1977.85883219 135.01598154 1976.52331539 136.34423258 Z " fill="#000000" transform="translate(0,0)"/>
</svg>
