<?xml version="1.0" encoding="UTF-8"?>
<svg version="1.1" xmlns="http://www.w3.org/2000/svg" width="2056" height="2056">
<path d="M0 0 C678.48 0 1356.96 0 2056 0 C2056 678.48 2056 1356.96 2056 2056 C1377.52 2056 699.04 2056 0 2056 C0 1377.52 0 699.04 0 0 Z M104 75 C108.89711498 80.7373647 108.89711498 80.7373647 114.04248047 86.171875 C114.77699432 86.90954102 115.51150818 87.64720703 116.26828003 88.40722656 C117.04341949 89.1803418 117.81855896 89.95345703 118.6171875 90.75 C119.43317413 91.56694336 120.24916077 92.38388672 121.08987427 93.22558594 C122.8081993 94.94458836 124.52777536 96.66234107 126.24853516 98.37890625 C128.86344701 100.98847064 131.47299001 103.60331766 134.08203125 106.21875 C135.76009622 107.89615397 137.43847146 109.57324761 139.1171875 111.25 C139.8882785 112.02311523 140.65936951 112.79623047 141.4538269 113.59277344 C144.84760575 116.97211185 148.25934028 120.27174035 151.89501953 123.390625 C156.52761354 127.38498535 160.81594862 131.7025646 165.12033081 136.04516602 C166.59931909 137.53714243 168.08160502 139.02577553 169.56469727 140.51367188 C173.24447387 144.20668154 176.91872627 147.90517112 180.59313965 151.60351562 C183.71045629 154.74070304 186.82991088 157.87573602 189.95211792 161.00805664 C191.39865069 162.46097908 192.84209167 163.91692281 194.28540039 165.37304688 C198.09791962 169.19964457 201.8991882 172.98162234 206 176.5 C210.60431657 180.45037016 214.85135016 184.73828047 219.12033081 189.04516602 C220.59931909 190.53714243 222.08160502 192.02577553 223.56469727 193.51367188 C227.24447387 197.20668154 230.91872627 200.90517112 234.59313965 204.60351562 C237.71045629 207.74070304 240.82991088 210.87573602 243.95211792 214.00805664 C245.39865069 215.46097908 246.84209167 216.91692281 248.28540039 218.37304688 C252.09791962 222.19964457 255.8991882 225.98162234 260 229.5 C264.60431657 233.45037016 268.85135016 237.73828047 273.12033081 242.04516602 C274.59931909 243.53714243 276.08160502 245.02577553 277.56469727 246.51367188 C281.24447387 250.20668154 284.91872627 253.90517112 288.59313965 257.60351562 C291.71045629 260.74070304 294.82991088 263.87573602 297.95211792 267.00805664 C299.39865069 268.46097908 300.84209167 269.91692281 302.28540039 271.37304688 C306.71272968 275.81672494 311.19114082 280.09207257 315.95068359 284.17553711 C320.26587467 288.01726012 324.27837206 292.17912006 328.34375 296.28125 C329.32176419 297.26368378 330.30008251 298.24581488 331.27868652 299.22766113 C334.87498984 302.83719318 338.46576596 306.45220706 342.05670166 310.06707764 C345.10355579 313.1338075 348.15255126 316.19837914 351.20429993 319.26023865 C352.61758629 320.67991157 354.02777111 322.10266999 355.43786621 323.5255127 C359.19521378 327.29705265 362.94470784 331.01880742 366.98632812 334.48632812 C371.59453683 338.44205222 375.84680282 342.73369275 380.12033081 347.04516602 C381.59931909 348.53714243 383.08160502 350.02577553 384.56469727 351.51367188 C388.24447387 355.20668154 391.91872627 358.90517112 395.59313965 362.60351562 C398.71045629 365.74070304 401.82991088 368.87573602 404.95211792 372.00805664 C406.39865069 373.46097908 407.84209167 374.91692281 409.28540039 376.37304688 C413.09791962 380.19964457 416.8991882 383.98162234 421 387.5 C425.60431657 391.45037016 429.85135016 395.73828047 434.12033081 400.04516602 C435.59931909 401.53714243 437.08160502 403.02577553 438.56469727 404.51367188 C442.24447387 408.20668154 445.91872627 411.90517112 449.59313965 415.60351562 C452.71045629 418.74070304 455.82991088 421.87573602 458.95211792 425.00805664 C460.39865069 426.46097908 461.84209167 427.91692281 463.28540039 429.37304688 C467.09791962 433.19964457 470.8991882 436.98162234 475 440.5 C479.60431657 444.45037016 483.85135016 448.73828047 488.12033081 453.04516602 C489.59931909 454.53714243 491.08160502 456.02577553 492.56469727 457.51367188 C496.24447387 461.20668154 499.91872627 464.90517112 503.59313965 468.60351562 C506.71045629 471.74070304 509.82991088 474.87573602 512.95211792 478.00805664 C514.39865069 479.46097908 515.84209167 480.91692281 517.28540039 482.37304688 C521.09791962 486.19964457 524.8991882 489.98162234 529 493.5 C533.60431657 497.45037016 537.85135016 501.73828047 542.12033081 506.04516602 C543.59931909 507.53714243 545.08160502 509.02577553 546.56469727 510.51367188 C550.24447387 514.20668154 553.91872627 517.90517112 557.59313965 521.60351562 C560.71045629 524.74070304 563.82991088 527.87573602 566.95211792 531.00805664 C568.39865069 532.46097908 569.84209167 533.91692281 571.28540039 535.37304688 C575.09791962 539.19964457 578.8991882 542.98162234 583 546.5 C587.60431657 550.45037016 591.85135016 554.73828047 596.12033081 559.04516602 C597.59931909 560.53714243 599.08160502 562.02577553 600.56469727 563.51367188 C604.24447387 567.20668154 607.91872627 570.90517112 611.59313965 574.60351562 C614.71045629 577.74070304 617.82991088 580.87573602 620.95211792 584.00805664 C622.39865069 585.46097908 623.84209167 586.91692281 625.28540039 588.37304688 C629.09791962 592.19964457 632.8991882 595.98162234 637 599.5 C641.60431657 603.45037016 645.85135016 607.73828047 650.12033081 612.04516602 C651.59931909 613.53714243 653.08160502 615.02577553 654.56469727 616.51367188 C658.24447387 620.20668154 661.91872627 623.90517112 665.59313965 627.60351562 C668.71045629 630.74070304 671.82991088 633.87573602 674.95211792 637.00805664 C676.39865069 638.46097908 677.84209167 639.91692281 679.28540039 641.37304688 C683.09791962 645.19964457 686.8991882 648.98162234 691 652.5 C695.60431657 656.45037016 699.85135016 660.73828047 704.12033081 665.04516602 C705.59931909 666.53714243 707.08160502 668.02577553 708.56469727 669.51367188 C712.24447387 673.20668154 715.91872627 676.90517112 719.59313965 680.60351562 C722.71045629 683.74070304 725.82991088 686.87573602 728.95211792 690.00805664 C730.39865069 691.46097908 731.84209167 692.91692281 733.28540039 694.37304688 C737.09791962 698.19964457 740.8991882 701.98162234 745 705.5 C749.60431657 709.45037016 753.85135016 713.73828047 758.12033081 718.04516602 C759.59931909 719.53714243 761.08160502 721.02577553 762.56469727 722.51367188 C766.24447387 726.20668154 769.91872627 729.90517112 773.59313965 733.60351562 C776.71045629 736.74070304 779.82991088 739.87573602 782.95211792 743.00805664 C784.39865069 744.46097908 785.84209167 745.91692281 787.28540039 747.37304688 C791.71272968 751.81672494 796.19114082 756.09207257 800.95068359 760.17553711 C805.26587467 764.01726012 809.27837206 768.17912006 813.34375 772.28125 C814.32176419 773.26368378 815.30008251 774.24581488 816.27868652 775.22766113 C819.87498984 778.83719318 823.46576596 782.45220706 827.05670166 786.06707764 C830.10355579 789.1338075 833.15255126 792.19837914 836.20429993 795.26023865 C837.61758629 796.67991157 839.02777111 798.10266999 840.43786621 799.5255127 C844.19521378 803.29705265 847.94470784 807.01880742 851.98632812 810.48632812 C856.59453683 814.44205222 860.84680282 818.73369275 865.12033081 823.04516602 C866.59931909 824.53714243 868.08160502 826.02577553 869.56469727 827.51367188 C873.24447387 831.20668154 876.91872627 834.90517112 880.59313965 838.60351562 C883.71045629 841.74070304 886.82991088 844.87573602 889.95211792 848.00805664 C891.39865069 849.46097908 892.84209167 850.91692281 894.28540039 852.37304688 C898.09791962 856.19964457 901.8991882 859.98162234 906 863.5 C910.60431657 867.45037016 914.85135016 871.73828047 919.12033081 876.04516602 C920.59931909 877.53714243 922.08160502 879.02577553 923.56469727 880.51367188 C927.24447387 884.20668154 930.91872627 887.90517112 934.59313965 891.60351562 C937.71045629 894.74070304 940.82991088 897.87573602 943.95211792 901.00805664 C945.39865069 902.46097908 946.84209167 903.91692281 948.28540039 905.37304688 C952.09791962 909.19964457 955.8991882 912.98162234 960 916.5 C964.60431657 920.45037016 968.85135016 924.73828047 973.12033081 929.04516602 C974.59931909 930.53714243 976.08160502 932.02577553 977.56469727 933.51367188 C981.24447387 937.20668154 984.91872627 940.90517112 988.59313965 944.60351562 C991.71045629 947.74070304 994.82991088 950.87573602 997.95211792 954.00805664 C999.39865069 955.46097908 1000.84209167 956.91692281 1002.28540039 958.37304688 C1006.83240263 962.93683981 1011.4169692 967.37336576 1016.32836914 971.54492188 C1017.96097823 972.96603334 1019.4883734 974.45174364 1021 976 C1025.25621595 974.34766037 1028.10525745 971.17080608 1031.25479627 967.99475139 C1032.19785839 967.05570988 1032.19785839 967.05570988 1033.15997227 966.09769783 C1035.2836267 963.98063051 1037.40003083 961.85645796 1039.51659012 959.73229885 C1041.05230067 958.19836979 1042.58844962 956.66487954 1044.12499905 955.13179079 C1048.37600837 950.8877828 1052.62071007 946.63751347 1056.86447278 942.38626097 C1060.99653204 938.24886808 1065.13329071 934.1161828 1069.26992723 929.98336713 C1077.83729288 921.42357695 1086.39989473 912.85903571 1094.95994186 904.29192734 C1103.63793679 895.60681002 1112.31809697 886.92386538 1121.00092697 878.24358177 C1121.54876861 877.69589799 1122.09661026 877.14821422 1122.66105316 876.58393396 C1125.45437231 873.79143879 1128.2477259 870.99897807 1131.04109082 868.20652868 C1151.27451829 847.9795773 1171.50302418 827.74770984 1191.72885895 807.51316643 C1211.76347323 787.46994127 1231.79993114 767.42856233 1251.83895111 747.3897419 C1253.09618803 746.1325129 1254.35342485 744.87528381 1255.61066156 743.61805461 C1260.66263936 738.56611419 1265.71463169 733.51418828 1270.76664181 728.46228018 C1284.88985052 714.33934913 1299.01272597 700.21608484 1313.1353569 686.09257603 C1313.77852013 685.44937313 1314.42168335 684.80617023 1315.08433637 684.14347634 C1335.58502927 663.64147507 1356.08428954 643.13804201 1376.58250809 622.63356686 C1377.24757114 621.96830086 1377.9126342 621.30303487 1378.59785068 620.6176093 C1389.39884256 609.81330847 1400.19974129 599.00891453 1411.00063535 588.20451591 C1453.8476978 545.34356223 1496.69838348 502.48623473 1539.55273438 459.63256836 C1540.9074174 458.27790573 1542.26210033 456.92324301 1543.61678318 455.5685802 C1546.3229107 452.86249286 1549.02903851 450.15640582 1551.73516652 447.45031896 C1557.80247297 441.38310393 1563.86977589 435.31588536 1569.93707205 429.24866002 C1571.28080154 427.90494629 1572.62453138 426.56123291 1573.96826154 425.21751985 C1609.8378182 389.34840816 1645.70491992 353.47684194 1681.5710876 317.60434157 C1682.50989945 316.66536445 1682.50989945 316.66536445 1683.46767721 315.70741811 C1691.96303804 307.21056181 1691.96303804 307.21056181 1700.45838204 298.71368868 C1714.23827514 284.93129772 1728.01844744 271.14918611 1741.79940128 257.36785579 C1742.42116265 256.74607689 1743.04292401 256.124298 1743.68352663 255.48367732 C1746.18954936 252.97758539 1748.69557407 250.47149542 1751.20159989 247.96540658 C1774.4226961 224.74372513 1797.642209 201.5204628 1820.85852531 178.29400247 C1823.08056936 176.07100077 1825.30262058 173.84800622 1827.52467728 171.62501717 C1828.07003119 171.07943272 1828.6153851 170.53384828 1829.17726488 169.97173098 C1837.83739416 161.30802767 1846.4991968 152.64599935 1855.16168029 143.98464998 C1863.66470044 135.48267007 1872.16594297 126.97891619 1880.66525293 118.47322721 C1885.21800161 113.91720752 1889.77156095 109.36200574 1894.32728234 104.8089584 C1898.46158464 100.67704775 1902.59362783 96.54289258 1906.72378448 92.40683815 C1908.21873113 90.9105781 1909.71453835 89.4151773 1911.21125323 87.92068601 C1913.22532836 85.90936511 1915.23636644 83.89505832 1917.24660039 81.87989944 C1918.13390575 80.99600299 1918.13390575 80.99600299 1919.03913647 80.09425005 C1921.75232266 77.90648267 1921.75232266 77.90648267 1923 75 C1322.73 75 722.46 75 104 75 Z M1975.895336 136.97286285 C1975.30451692 137.5661908 1974.71369785 138.15951875 1974.10497516 138.77082634 C1973.47871249 139.39581093 1972.85244981 140.02079552 1972.20720948 140.66471904 C1970.07618526 142.79264232 1967.94879168 144.92416024 1965.82131863 147.05563354 C1964.28548133 148.59073222 1962.74942464 150.12561141 1961.21316662 151.66028905 C1956.95066602 155.9196982 1952.69132503 160.18225519 1948.43244738 164.44528642 C1944.28971553 168.59108198 1940.14463712 172.73452913 1935.9996153 176.87803494 C1927.41204046 185.46263718 1918.82684741 194.04961781 1910.24292374 202.63787079 C1901.53831583 211.34684958 1892.83262463 220.05474332 1884.12559319 228.76129913 C1883.57661774 229.31024589 1883.02764229 229.85919265 1882.46203122 230.42477415 C1879.66303251 233.2236165 1876.86401601 236.02244105 1874.06499322 238.82125932 C1853.78060073 259.10424254 1833.49863302 279.38964898 1813.21793938 299.67633057 C1793.12688185 319.7733059 1773.03479392 339.86925017 1752.9413166 359.96380615 C1752.31782481 360.58733235 1751.69433302 361.21085856 1751.05194754 361.85327949 C1745.35750375 367.54803648 1739.6630472 373.24278071 1733.96857536 378.93750965 C1719.81128996 393.09543453 1705.65416452 407.25351935 1691.49714756 421.41171265 C1690.53001343 422.37892675 1690.53001343 422.37892675 1689.54334123 423.36568054 C1658.16197445 454.74967031 1626.78245048 486.13550244 1595.40307617 517.52148438 C1584.51057574 528.41627642 1573.61806717 539.31106033 1562.7255249 550.20581055 C1562.04998966 550.88148274 1561.37445442 551.55715493 1560.67844841 552.25330204 C1529.28811102 583.64998079 1497.89646663 615.04535261 1466.50448395 646.4403863 C1464.46707333 648.47799497 1462.42966329 650.51560421 1460.39225336 652.55321357 C1446.89049311 666.05629356 1433.38871032 679.55935101 1419.88691242 693.06239336 C1393.02053901 719.93124342 1366.15429813 746.80022599 1339.28814826 773.66929957 C1338.00864516 774.94894191 1336.72914197 776.22858416 1335.44963868 777.50822631 C1277.83228162 835.13183831 1220.21646652 892.75699193 1162.60131836 950.3828125 C1161.79190551 951.19237525 1161.79190551 951.19237525 1160.96614089 952.0182928 C1133.97733322 979.01210117 1106.98861347 1006.00599746 1080 1033 C1080.96020249 1034.12529507 1081.92112033 1035.24997977 1082.88234138 1036.37440491 C1083.417376 1037.00077882 1083.95241062 1037.62715273 1084.50365841 1038.27250767 C1086.10573772 1040.12207179 1087.76280879 1041.88961305 1089.49169922 1043.62109375 C1090.10608856 1044.23863525 1090.72047791 1044.85617676 1091.35348511 1045.49243164 C1091.9973819 1046.1343042 1092.64127869 1046.77617676 1093.3046875 1047.4375 C1093.98749786 1048.12126709 1094.67030823 1048.80503418 1095.37380981 1049.50952148 C1096.8096647 1050.94605274 1098.24676662 1052.38133852 1099.68505859 1053.81542969 C1101.86540315 1055.99042669 1104.04036871 1058.17069918 1106.21484375 1060.3515625 C1107.61947126 1061.75552897 1109.02440906 1063.15918508 1110.4296875 1064.5625 C1111.06953583 1065.20437256 1111.70938416 1065.84624512 1112.36862183 1066.50756836 C1115.43115054 1069.55454417 1118.533508 1072.49562919 1121.81298828 1075.30859375 C1126.46918437 1079.33470681 1130.78869464 1083.67506863 1135.12033081 1088.04516602 C1136.59931909 1089.53714243 1138.08160502 1091.02577553 1139.56469727 1092.51367188 C1143.24447387 1096.20668154 1146.91872627 1099.90517112 1150.59313965 1103.60351562 C1153.71045629 1106.74070304 1156.82991088 1109.87573602 1159.95211792 1113.00805664 C1161.39865069 1114.46097908 1162.84209167 1115.91692281 1164.28540039 1117.37304688 C1168.09791962 1121.19964457 1171.8991882 1124.98162234 1176 1128.5 C1180.60431657 1132.45037016 1184.85135016 1136.73828047 1189.12033081 1141.04516602 C1190.59931909 1142.53714243 1192.08160502 1144.02577553 1193.56469727 1145.51367188 C1197.24447387 1149.20668154 1200.91872627 1152.90517112 1204.59313965 1156.60351562 C1207.71045629 1159.74070304 1210.82991088 1162.87573602 1213.95211792 1166.00805664 C1215.39865069 1167.46097908 1216.84209167 1168.91692281 1218.28540039 1170.37304688 C1222.09791962 1174.19964457 1225.8991882 1177.98162234 1230 1181.5 C1234.60431657 1185.45037016 1238.85135016 1189.73828047 1243.12033081 1194.04516602 C1244.59931909 1195.53714243 1246.08160502 1197.02577553 1247.56469727 1198.51367188 C1251.24447387 1202.20668154 1254.91872627 1205.90517112 1258.59313965 1209.60351562 C1261.71045629 1212.74070304 1264.82991088 1215.87573602 1267.95211792 1219.00805664 C1269.39865069 1220.46097908 1270.84209167 1221.91692281 1272.28540039 1223.37304688 C1276.09791962 1227.19964457 1279.8991882 1230.98162234 1284 1234.5 C1288.60431657 1238.45037016 1292.85135016 1242.73828047 1297.12033081 1247.04516602 C1298.59931909 1248.53714243 1300.08160502 1250.02577553 1301.56469727 1251.51367188 C1305.24447387 1255.20668154 1308.91872627 1258.90517112 1312.59313965 1262.60351562 C1315.71045629 1265.74070304 1318.82991088 1268.87573602 1321.95211792 1272.00805664 C1323.39865069 1273.46097908 1324.84209167 1274.91692281 1326.28540039 1276.37304688 C1330.71272968 1280.81672494 1335.19114082 1285.09207257 1339.95068359 1289.17553711 C1344.26587467 1293.01726012 1348.27837206 1297.17912006 1352.34375 1301.28125 C1353.32176419 1302.26368378 1354.30008251 1303.24581488 1355.27868652 1304.22766113 C1358.87498984 1307.83719318 1362.46576596 1311.45220706 1366.05670166 1315.06707764 C1369.10355579 1318.1338075 1372.15255126 1321.19837914 1375.20429993 1324.26023865 C1376.61758629 1325.67991157 1378.02777111 1327.10266999 1379.43786621 1328.5255127 C1383.19521378 1332.29705265 1386.94470784 1336.01880742 1390.98632812 1339.48632812 C1395.59453683 1343.44205222 1399.84680282 1347.73369275 1404.12033081 1352.04516602 C1405.59931909 1353.53714243 1407.08160502 1355.02577553 1408.56469727 1356.51367188 C1412.24447387 1360.20668154 1415.91872627 1363.90517112 1419.59313965 1367.60351562 C1422.71045629 1370.74070304 1425.82991088 1373.87573602 1428.95211792 1377.00805664 C1430.39865069 1378.46097908 1431.84209167 1379.91692281 1433.28540039 1381.37304688 C1437.09791962 1385.19964457 1440.8991882 1388.98162234 1445 1392.5 C1449.60431657 1396.45037016 1453.85135016 1400.73828047 1458.12033081 1405.04516602 C1459.59931909 1406.53714243 1461.08160502 1408.02577553 1462.56469727 1409.51367188 C1466.24447387 1413.20668154 1469.91872627 1416.90517112 1473.59313965 1420.60351562 C1476.71045629 1423.74070304 1479.82991088 1426.87573602 1482.95211792 1430.00805664 C1484.39865069 1431.46097908 1485.84209167 1432.91692281 1487.28540039 1434.37304688 C1491.09791962 1438.19964457 1494.8991882 1441.98162234 1499 1445.5 C1503.60431657 1449.45037016 1507.85135016 1453.73828047 1512.12033081 1458.04516602 C1513.59931909 1459.53714243 1515.08160502 1461.02577553 1516.56469727 1462.51367188 C1520.24447387 1466.20668154 1523.91872627 1469.90517112 1527.59313965 1473.60351562 C1530.71045629 1476.74070304 1533.82991088 1479.87573602 1536.95211792 1483.00805664 C1538.39865069 1484.46097908 1539.84209167 1485.91692281 1541.28540039 1487.37304688 C1545.09791962 1491.19964457 1548.8991882 1494.98162234 1553 1498.5 C1557.60431657 1502.45037016 1561.85135016 1506.73828047 1566.12033081 1511.04516602 C1567.59931909 1512.53714243 1569.08160502 1514.02577553 1570.56469727 1515.51367188 C1574.24447387 1519.20668154 1577.91872627 1522.90517112 1581.59313965 1526.60351562 C1584.71045629 1529.74070304 1587.82991088 1532.87573602 1590.95211792 1536.00805664 C1592.39865069 1537.46097908 1593.84209167 1538.91692281 1595.28540039 1540.37304688 C1599.09791962 1544.19964457 1602.8991882 1547.98162234 1607 1551.5 C1611.60431657 1555.45037016 1615.85135016 1559.73828047 1620.12033081 1564.04516602 C1621.59931909 1565.53714243 1623.08160502 1567.02577553 1624.56469727 1568.51367188 C1628.24447387 1572.20668154 1631.91872627 1575.90517112 1635.59313965 1579.60351562 C1638.71045629 1582.74070304 1641.82991088 1585.87573602 1644.95211792 1589.00805664 C1646.39865069 1590.46097908 1647.84209167 1591.91692281 1649.28540039 1593.37304688 C1653.09791962 1597.19964457 1656.8991882 1600.98162234 1661 1604.5 C1665.60431657 1608.45037016 1669.85135016 1612.73828047 1674.12033081 1617.04516602 C1675.59931909 1618.53714243 1677.08160502 1620.02577553 1678.56469727 1621.51367188 C1682.24447387 1625.20668154 1685.91872627 1628.90517112 1689.59313965 1632.60351562 C1692.71045629 1635.74070304 1695.82991088 1638.87573602 1698.95211792 1642.00805664 C1700.39865069 1643.46097908 1701.84209167 1644.91692281 1703.28540039 1646.37304688 C1707.09791962 1650.19964457 1710.8991882 1653.98162234 1715 1657.5 C1719.60431657 1661.45037016 1723.85135016 1665.73828047 1728.12033081 1670.04516602 C1729.59931909 1671.53714243 1731.08160502 1673.02577553 1732.56469727 1674.51367188 C1736.24447387 1678.20668154 1739.91872627 1681.90517112 1743.59313965 1685.60351562 C1746.71045629 1688.74070304 1749.82991088 1691.87573602 1752.95211792 1695.00805664 C1754.39865069 1696.46097908 1755.84209167 1697.91692281 1757.28540039 1699.37304688 C1761.09791962 1703.19964457 1764.8991882 1706.98162234 1769 1710.5 C1773.60431657 1714.45037016 1777.85135016 1718.73828047 1782.12033081 1723.04516602 C1783.59931909 1724.53714243 1785.08160502 1726.02577553 1786.56469727 1727.51367188 C1790.24447387 1731.20668154 1793.91872627 1734.90517112 1797.59313965 1738.60351562 C1800.71045629 1741.74070304 1803.82991088 1744.87573602 1806.95211792 1748.00805664 C1808.39865069 1749.46097908 1809.84209167 1750.91692281 1811.28540039 1752.37304688 C1815.71272968 1756.81672494 1820.19114082 1761.09207257 1824.95068359 1765.17553711 C1829.26587467 1769.01726012 1833.27837206 1773.17912006 1837.34375 1777.28125 C1838.32176419 1778.26368378 1839.30008251 1779.24581488 1840.27868652 1780.22766113 C1843.87498984 1783.83719318 1847.46576596 1787.45220706 1851.05670166 1791.06707764 C1854.10355579 1794.1338075 1857.15255126 1797.19837914 1860.20429993 1800.26023865 C1861.61758629 1801.67991157 1863.02777111 1803.10266999 1864.43786621 1804.5255127 C1868.19521378 1808.29705265 1871.94470784 1812.01880742 1875.98632812 1815.48632812 C1880.59453683 1819.44205222 1884.84680282 1823.73369275 1889.12033081 1828.04516602 C1890.59931909 1829.53714243 1892.08160502 1831.02577553 1893.56469727 1832.51367188 C1897.24447387 1836.20668154 1900.91872627 1839.90517112 1904.59313965 1843.60351562 C1907.71045629 1846.74070304 1910.82991088 1849.87573602 1913.95211792 1853.00805664 C1915.39865069 1854.46097908 1916.84209167 1855.91692281 1918.28540039 1857.37304688 C1922.09282321 1861.19452935 1925.8882777 1864.97210487 1929.98461914 1868.48461914 C1934.67062544 1872.50500332 1938.98921742 1876.87639386 1943.33428764 1881.25912285 C1944.84078099 1882.77855749 1946.35053234 1884.29468955 1947.86109924 1885.81007385 C1951.05608757 1889.01638158 1954.24706441 1892.22666291 1957.4375 1895.4375 C1961.16126806 1899.18488104 1964.88666862 1902.93060983 1968.61625862 1906.67219734 C1970.10571589 1908.16814884 1971.59214113 1909.66706943 1973.07847595 1911.16612244 C1973.97353348 1912.06448318 1974.868591 1912.96284393 1975.79077148 1913.88842773 C1976.58160629 1914.68449936 1977.3724411 1915.48057098 1978.1872406 1916.30076599 C1979.70748859 1918.11398205 1979.70748859 1918.11398205 1981 1918 C1981 1328.95 1981 739.9 1981 133 C1978.8053695 133 1977.37005822 135.50466189 1975.895336 136.97286285 Z M75 162 C75 743.13 75 1324.26 75 1923 C79.7002089 1918.97124952 84.17476509 1914.9687874 88.52479929 1910.59939921 C89.45694654 1909.66916909 89.45694654 1909.66916909 90.40792505 1908.72014643 C92.4862751 1906.64485504 94.56104927 1904.56602592 96.63585567 1902.48719215 C98.14798889 1900.97579882 99.66034155 1899.464625 101.17289355 1897.95365077 C105.34159465 1893.78802113 109.50716413 1889.61927206 113.67224404 1885.45002215 C118.19910357 1880.91973093 122.72886223 1876.39234009 127.2582584 1871.86458528 C135.20042174 1863.92467238 143.14056302 1855.98274089 151.0795517 1848.03965378 C159.59780422 1839.51702315 168.11714766 1830.99548523 176.63782692 1822.47528076 C177.17599559 1821.93714079 177.71416425 1821.39900081 178.26864106 1820.84455357 C181.01276888 1818.10058212 183.75691449 1815.35662846 186.50106638 1812.61268109 C206.36372272 1792.75143228 226.223959 1772.88776501 246.08291435 1753.0228157 C265.75034767 1733.34946042 285.41881512 1713.67713995 305.08867073 1694.00620651 C305.69948553 1693.39535731 306.31030032 1692.7845081 306.93962465 1692.15514831 C312.51845763 1686.57600214 318.09730336 1680.99686872 323.67616439 1675.4177506 C337.54473808 1661.54853751 351.4131518 1647.67916446 365.28145695 1633.80968285 C365.91299694 1633.17808953 366.54453694 1632.54649622 367.19521451 1631.89576372 C397.91779904 1601.17055751 428.63854038 1570.44350855 459.35913086 1539.71630859 C470.02018596 1529.05296184 480.6812492 1518.38962323 491.34234619 1507.72631836 C492.0035463 1507.06498131 492.6647464 1506.40364425 493.34598287 1505.72226668 C524.08216555 1474.9797402 554.81965727 1444.2385227 585.55748686 1413.49764289 C587.55295193 1411.50197976 589.54841644 1409.50631606 591.54388083 1407.51065225 C604.76790214 1394.28531115 617.99194602 1381.05999262 631.21600501 1367.8346892 C657.52871502 1341.51950268 683.84129244 1315.20418358 710.15377877 1288.8887734 C711.4068547 1287.63555823 712.65993072 1286.38234316 713.91300683 1285.12912817 C770.32533575 1228.71054598 826.73612214 1172.29042159 883.14624023 1115.86962891 C883.67445502 1115.34131419 884.2026698 1114.81299947 884.74689109 1114.26867522 C911.16468821 1087.84587761 937.58239731 1061.422992 964 1035 C962.48123262 1031.81058851 960.91059243 1029.66753164 958.375 1027.1875 C957.74335937 1026.56230469 957.11171875 1025.93710938 956.4609375 1025.29296875 C954.51040813 1023.47557075 952.53219712 1021.74308527 950.50634766 1020.01293945 C945.75795351 1015.86340588 941.31751769 1011.43208678 936.87966919 1006.95483398 C935.40068091 1005.46285757 933.91839498 1003.97422447 932.43530273 1002.48632812 C928.75552613 998.79331846 925.08127373 995.09482888 921.40686035 991.39648438 C918.28954371 988.25929696 915.17008912 985.12426398 912.04788208 981.99194336 C910.60134931 980.53902092 909.15790833 979.08307719 907.71459961 977.62695312 C903.28727032 973.18327506 898.80885918 968.90792743 894.04931641 964.82446289 C889.73412533 960.98273988 885.72162794 956.82087994 881.65625 952.71875 C880.67823581 951.73631622 879.69991749 950.75418512 878.72131348 949.77233887 C875.12501016 946.16280682 871.53423404 942.54779294 867.94329834 938.93292236 C864.89644421 935.8661925 861.84744874 932.80162086 858.79570007 929.73976135 C857.38241371 928.32008843 855.97222889 926.89733001 854.56213379 925.4744873 C850.80478622 921.70294735 847.05529216 917.98119258 843.01367188 914.51367188 C838.40546317 910.55794778 834.15319718 906.26630725 829.87966919 901.95483398 C828.40068091 900.46285757 826.91839498 898.97422447 825.43530273 897.48632812 C821.75552613 893.79331846 818.08127373 890.09482888 814.40686035 886.39648438 C811.28954371 883.25929696 808.17008912 880.12426398 805.04788208 876.99194336 C803.60134931 875.53902092 802.15790833 874.08307719 800.71459961 872.62695312 C796.28727032 868.18327506 791.80885918 863.90792743 787.04931641 859.82446289 C782.73412533 855.98273988 778.72162794 851.82087994 774.65625 847.71875 C773.67823581 846.73631622 772.69991749 845.75418512 771.72131348 844.77233887 C768.12501016 841.16280682 764.53423404 837.54779294 760.94329834 833.93292236 C757.89644421 830.8661925 754.84744874 827.80162086 751.79570007 824.73976135 C750.38241371 823.32008843 748.97222889 821.89733001 747.56213379 820.4744873 C743.80478622 816.70294735 740.05529216 812.98119258 736.01367188 809.51367188 C731.40546317 805.55794778 727.15319718 801.26630725 722.87966919 796.95483398 C721.40068091 795.46285757 719.91839498 793.97422447 718.43530273 792.48632812 C714.75552613 788.79331846 711.08127373 785.09482888 707.40686035 781.39648438 C704.28954371 778.25929696 701.17008912 775.12426398 698.04788208 771.99194336 C696.60134931 770.53902092 695.15790833 769.08307719 693.71459961 767.62695312 C689.28727032 763.18327506 684.80885918 758.90792743 680.04931641 754.82446289 C675.73412533 750.98273988 671.72162794 746.82087994 667.65625 742.71875 C666.67823581 741.73631622 665.69991749 740.75418512 664.72131348 739.77233887 C661.12501016 736.16280682 657.53423404 732.54779294 653.94329834 728.93292236 C650.89644421 725.8661925 647.84744874 722.80162086 644.79570007 719.73976135 C643.38241371 718.32008843 641.97222889 716.89733001 640.56213379 715.4744873 C636.80478622 711.70294735 633.05529216 707.98119258 629.01367188 704.51367188 C624.40546317 700.55794778 620.15319718 696.26630725 615.87966919 691.95483398 C614.40068091 690.46285757 612.91839498 688.97422447 611.43530273 687.48632812 C607.75552613 683.79331846 604.08127373 680.09482888 600.40686035 676.39648438 C597.28954371 673.25929696 594.17008912 670.12426398 591.04788208 666.99194336 C589.60134931 665.53902092 588.15790833 664.08307719 586.71459961 662.62695312 C582.28727032 658.18327506 577.80885918 653.90792743 573.04931641 649.82446289 C568.73412533 645.98273988 564.72162794 641.82087994 560.65625 637.71875 C559.67823581 636.73631622 558.69991749 635.75418512 557.72131348 634.77233887 C554.12501016 631.16280682 550.53423404 627.54779294 546.94329834 623.93292236 C543.89644421 620.8661925 540.84744874 617.80162086 537.79570007 614.73976135 C536.38241371 613.32008843 534.97222889 611.89733001 533.56213379 610.4744873 C529.80478622 606.70294735 526.05529216 602.98119258 522.01367188 599.51367188 C517.40546317 595.55794778 513.15319718 591.26630725 508.87966919 586.95483398 C507.40068091 585.46285757 505.91839498 583.97422447 504.43530273 582.48632812 C500.75552613 578.79331846 497.08127373 575.09482888 493.40686035 571.39648438 C490.28954371 568.25929696 487.17008912 565.12426398 484.04788208 561.99194336 C482.60134931 560.53902092 481.15790833 559.08307719 479.71459961 557.62695312 C475.90208038 553.80035543 472.1008118 550.01837766 468 546.5 C463.39568343 542.54962984 459.14864984 538.26171953 454.87966919 533.95483398 C453.40068091 532.46285757 451.91839498 530.97422447 450.43530273 529.48632812 C446.75552613 525.79331846 443.08127373 522.09482888 439.40686035 518.39648438 C436.28954371 515.25929696 433.17008912 512.12426398 430.04788208 508.99194336 C428.60134931 507.53902092 427.15790833 506.08307719 425.71459961 504.62695312 C421.28727032 500.18327506 416.80885918 495.90792743 412.04931641 491.82446289 C407.73412533 487.98273988 403.72162794 483.82087994 399.65625 479.71875 C398.67823581 478.73631622 397.69991749 477.75418512 396.72131348 476.77233887 C393.12501016 473.16280682 389.53423404 469.54779294 385.94329834 465.93292236 C382.89644421 462.8661925 379.84744874 459.80162086 376.79570007 456.73976135 C375.38241371 455.32008843 373.97222889 453.89733001 372.56213379 452.4744873 C368.80478622 448.70294735 365.05529216 444.98119258 361.01367188 441.51367188 C356.40546317 437.55794778 352.15319718 433.26630725 347.87966919 428.95483398 C346.40068091 427.46285757 344.91839498 425.97422447 343.43530273 424.48632812 C339.75552613 420.79331846 336.08127373 417.09482888 332.40686035 413.39648438 C329.28954371 410.25929696 326.17008912 407.12426398 323.04788208 403.99194336 C321.60134931 402.53902092 320.15790833 401.08307719 318.71459961 399.62695312 C314.28727032 395.18327506 309.80885918 390.90792743 305.04931641 386.82446289 C300.73412533 382.98273988 296.72162794 378.82087994 292.65625 374.71875 C291.67823581 373.73631622 290.69991749 372.75418512 289.72131348 371.77233887 C286.12501016 368.16280682 282.53423404 364.54779294 278.94329834 360.93292236 C275.89644421 357.8661925 272.84744874 354.80162086 269.79570007 351.73976135 C268.38241371 350.32008843 266.97222889 348.89733001 265.56213379 347.4744873 C261.80478622 343.70294735 258.05529216 339.98119258 254.01367188 336.51367188 C249.40546317 332.55794778 245.15319718 328.26630725 240.87966919 323.95483398 C239.40068091 322.46285757 237.91839498 320.97422447 236.43530273 319.48632812 C232.75552613 315.79331846 229.08127373 312.09482888 225.40686035 308.39648438 C222.28954371 305.25929696 219.17008912 302.12426398 216.04788208 298.99194336 C214.60134931 297.53902092 213.15790833 296.08307719 211.71459961 294.62695312 C207.28727032 290.18327506 202.80885918 285.90792743 198.04931641 281.82446289 C193.73412533 277.98273988 189.72162794 273.82087994 185.65625 269.71875 C184.67823581 268.73631622 183.69991749 267.75418512 182.72131348 266.77233887 C179.12501016 263.16280682 175.53423404 259.54779294 171.94329834 255.93292236 C168.89644421 252.8661925 165.84744874 249.80162086 162.79570007 246.73976135 C161.38241371 245.32008843 159.97222889 243.89733001 158.56213379 242.4744873 C154.80478622 238.70294735 151.05529216 234.98119258 147.01367188 231.51367188 C142.40546317 227.55794778 138.15319718 223.26630725 133.87966919 218.95483398 C132.40068091 217.46285757 130.91839498 215.97422447 129.43530273 214.48632812 C125.75552613 210.79331846 122.08127373 207.09482888 118.40686035 203.39648438 C115.28954371 200.25929696 112.17008912 197.12426398 109.04788208 193.99194336 C107.60134931 192.53902092 106.15790833 191.08307719 104.71459961 189.62695312 C100.18593327 185.0815638 95.62207621 180.65990108 90.72923279 176.50657654 C87.68302556 173.85259937 84.88442888 170.95074918 82.0625 168.0625 C80.06207494 166.01727259 78.04725283 163.99915291 76 162 C75.67 162 75.34 162 75 162 Z M1017.94389321 1094.92351295 C1017.36032592 1095.50947098 1016.77675863 1096.09542901 1016.17550749 1096.69914335 C1015.55688351 1097.31636501 1014.93825953 1097.93358667 1014.30088938 1098.56951201 C1012.19590229 1100.67097592 1010.09454563 1102.77603454 1007.9931097 1104.88104916 C1006.4760319 1106.39708533 1004.95873492 1107.9129022 1003.44123682 1109.42851767 C999.23082163 1113.6350044 995.02356745 1117.84464082 990.81677866 1122.05475378 C986.25513089 1126.61892083 981.69060664 1131.18020956 977.12643582 1135.7418533 C969.11389853 1143.75058772 961.10340208 1151.76135995 953.09405327 1159.773283 C944.4958678 1168.37421518 935.89660424 1176.97406729 927.29600906 1185.57258987 C926.75374296 1186.1147268 926.21147687 1186.65686373 925.65277846 1187.21542904 C923.444382 1189.42329227 921.2359778 1191.63114776 919.0275638 1193.83899343 C898.43456802 1214.42669336 877.84404617 1235.01686589 857.25509453 1255.60861015 C856.64438863 1256.21939885 856.03368272 1256.83018755 855.40447058 1257.459485 C854.48695732 1258.37712266 854.48695732 1258.37712266 853.55090843 1259.31329845 C834.93997552 1277.92675131 816.32811096 1296.53927199 797.71531868 1315.15086555 C796.47047655 1316.3956302 795.22563458 1317.64039501 793.98079278 1318.88515999 C788.97869267 1323.88694964 783.97658846 1328.88873519 778.97447826 1333.89051474 C764.99021782 1347.87385803 751.00613071 1361.85737464 737.0221796 1375.84102726 C736.38530452 1376.4778887 735.74842944 1377.11475014 735.09225511 1377.7709104 C714.78889978 1398.07385626 694.48631333 1418.3775708 674.18424892 1438.68180752 C673.52545856 1439.34066813 672.8666682 1439.99952874 672.18791449 1440.67835483 C661.4885815 1451.37883286 650.7892857 1462.07934808 640.08999305 1472.77986644 C597.6514104 1515.22330569 555.21028753 1557.66420314 512.7668457 1600.1027832 C502.07181783 1610.79658996 491.376795 1621.49040177 480.68180752 1632.18424892 C480.02333988 1632.84264611 479.36487225 1633.5010433 478.68645105 1634.17939192 C458.40400488 1654.45968294 438.1221786 1674.74059371 417.84102726 1695.0221796 C417.20462936 1695.65859108 416.56823147 1696.29500257 415.91254878 1696.95069924 C401.94461987 1710.91894059 387.97685152 1724.88734249 374.00922807 1738.8558893 C369.01183314 1743.85361339 364.01443017 1748.85132944 359.0170249 1753.84904318 C357.77372196 1755.09242351 356.53041969 1756.33580451 355.28711809 1757.57918618 C336.67889598 1776.18860347 318.06956604 1794.79691231 299.459485 1813.40447058 C298.8486963 1814.01517648 298.2379076 1814.62588239 297.60861015 1815.25509453 C296.99894079 1815.86468121 296.38927142 1816.4742679 295.76112722 1817.10232691 C275.23063317 1837.6300671 254.70201752 1858.15968411 234.17554241 1878.69144302 C231.97456551 1880.89297231 229.77358076 1883.09449376 227.57258987 1885.29600906 C227.03240469 1885.83632445 226.49221951 1886.37663984 225.93566508 1886.93332842 C217.35758545 1895.51338592 208.77782561 1904.09176124 200.19737867 1912.66945126 C191.77479691 1921.08939763 183.35402739 1929.51115265 174.93509552 1937.9347485 C170.42538151 1942.44685837 165.91485395 1946.95814717 161.40216058 1951.46727746 C157.30686895 1955.55936827 153.21383467 1959.65370218 149.12268491 1963.74993379 C147.6418525 1965.23178363 146.16015939 1966.7127739 144.67755845 1968.19285431 C142.68246087 1970.18479733 140.69040036 1972.17972637 138.69914335 1974.17550749 C137.8202063 1975.05085842 137.8202063 1975.05085842 136.92351295 1975.94389321 C134.23306665 1978.11396519 134.23306665 1978.11396519 133 1981 C725.68 1981 1318.36 1981 1929 1981 C1924.80246918 1976.10288071 1920.72271943 1971.73925111 1916 1967.4375 C1909.28660855 1961.23016696 1902.76622416 1954.85147658 1896.3125 1948.375 C1895.39065918 1947.44993652 1894.46881836 1946.52487305 1893.51904297 1945.57177734 C1890.67745196 1942.71640892 1887.83820445 1939.85873352 1885 1937 C1882.12442527 1934.10385 1879.24813997 1931.20842569 1876.36791992 1928.31689453 C1874.59354856 1926.53510034 1872.82142111 1924.75106756 1871.05200195 1922.96435547 C1867.47453136 1919.37227132 1863.89267751 1915.8477299 1860.04492188 1912.54492188 C1854.98955094 1908.19827131 1850.34688888 1903.45179339 1845.65625 1898.71875 C1844.67823581 1897.73631622 1843.69991749 1896.75418512 1842.72131348 1895.77233887 C1839.12501016 1892.16280682 1835.53423404 1888.54779294 1831.94329834 1884.93292236 C1828.89644421 1881.8661925 1825.84744874 1878.80162086 1822.79570007 1875.73976135 C1821.38241371 1874.32008843 1819.97222889 1872.89733001 1818.56213379 1871.4744873 C1814.80478622 1867.70294735 1811.05529216 1863.98119258 1807.01367188 1860.51367188 C1802.40546317 1856.55794778 1798.15319718 1852.26630725 1793.87966919 1847.95483398 C1792.40068091 1846.46285757 1790.91839498 1844.97422447 1789.43530273 1843.48632812 C1785.75552613 1839.79331846 1782.08127373 1836.09482888 1778.40686035 1832.39648438 C1775.28954371 1829.25929696 1772.17008912 1826.12426398 1769.04788208 1822.99194336 C1767.60134931 1821.53902092 1766.15790833 1820.08307719 1764.71459961 1818.62695312 C1760.28727032 1814.18327506 1755.80885918 1809.90792743 1751.04931641 1805.82446289 C1746.73412533 1801.98273988 1742.72162794 1797.82087994 1738.65625 1793.71875 C1737.67823581 1792.73631622 1736.69991749 1791.75418512 1735.72131348 1790.77233887 C1732.12501016 1787.16280682 1728.53423404 1783.54779294 1724.94329834 1779.93292236 C1721.89644421 1776.8661925 1718.84744874 1773.80162086 1715.79570007 1770.73976135 C1714.38241371 1769.32008843 1712.97222889 1767.89733001 1711.56213379 1766.4744873 C1707.80478622 1762.70294735 1704.05529216 1758.98119258 1700.01367188 1755.51367188 C1695.40546317 1751.55794778 1691.15319718 1747.26630725 1686.87966919 1742.95483398 C1685.40068091 1741.46285757 1683.91839498 1739.97422447 1682.43530273 1738.48632812 C1678.75552613 1734.79331846 1675.08127373 1731.09482888 1671.40686035 1727.39648438 C1668.28954371 1724.25929696 1665.17008912 1721.12426398 1662.04788208 1717.99194336 C1660.60134931 1716.53902092 1659.15790833 1715.08307719 1657.71459961 1713.62695312 C1653.28727032 1709.18327506 1648.80885918 1704.90792743 1644.04931641 1700.82446289 C1639.73412533 1696.98273988 1635.72162794 1692.82087994 1631.65625 1688.71875 C1630.67823581 1687.73631622 1629.69991749 1686.75418512 1628.72131348 1685.77233887 C1625.12501016 1682.16280682 1621.53423404 1678.54779294 1617.94329834 1674.93292236 C1614.89644421 1671.8661925 1611.84744874 1668.80162086 1608.79570007 1665.73976135 C1607.38241371 1664.32008843 1605.97222889 1662.89733001 1604.56213379 1661.4744873 C1600.80478622 1657.70294735 1597.05529216 1653.98119258 1593.01367188 1650.51367188 C1588.40546317 1646.55794778 1584.15319718 1642.26630725 1579.87966919 1637.95483398 C1578.40068091 1636.46285757 1576.91839498 1634.97422447 1575.43530273 1633.48632812 C1571.75552613 1629.79331846 1568.08127373 1626.09482888 1564.40686035 1622.39648438 C1561.28954371 1619.25929696 1558.17008912 1616.12426398 1555.04788208 1612.99194336 C1553.60134931 1611.53902092 1552.15790833 1610.08307719 1550.71459961 1608.62695312 C1546.28727032 1604.18327506 1541.80885918 1599.90792743 1537.04931641 1595.82446289 C1532.73412533 1591.98273988 1528.72162794 1587.82087994 1524.65625 1583.71875 C1523.67823581 1582.73631622 1522.69991749 1581.75418512 1521.72131348 1580.77233887 C1518.12501016 1577.16280682 1514.53423404 1573.54779294 1510.94329834 1569.93292236 C1507.89644421 1566.8661925 1504.84744874 1563.80162086 1501.79570007 1560.73976135 C1500.38241371 1559.32008843 1498.97222889 1557.89733001 1497.56213379 1556.4744873 C1493.80478622 1552.70294735 1490.05529216 1548.98119258 1486.01367188 1545.51367188 C1481.40546317 1541.55794778 1477.15319718 1537.26630725 1472.87966919 1532.95483398 C1471.40068091 1531.46285757 1469.91839498 1529.97422447 1468.43530273 1528.48632812 C1464.75552613 1524.79331846 1461.08127373 1521.09482888 1457.40686035 1517.39648438 C1454.28954371 1514.25929696 1451.17008912 1511.12426398 1448.04788208 1507.99194336 C1446.60134931 1506.53902092 1445.15790833 1505.08307719 1443.71459961 1503.62695312 C1439.90208038 1499.80035543 1436.1008118 1496.01837766 1432 1492.5 C1427.39568343 1488.54962984 1423.14864984 1484.26171953 1418.87966919 1479.95483398 C1417.40068091 1478.46285757 1415.91839498 1476.97422447 1414.43530273 1475.48632812 C1410.75552613 1471.79331846 1407.08127373 1468.09482888 1403.40686035 1464.39648438 C1400.28954371 1461.25929696 1397.17008912 1458.12426398 1394.04788208 1454.99194336 C1392.60134931 1453.53902092 1391.15790833 1452.08307719 1389.71459961 1450.62695312 C1385.28727032 1446.18327506 1380.80885918 1441.90792743 1376.04931641 1437.82446289 C1371.73412533 1433.98273988 1367.72162794 1429.82087994 1363.65625 1425.71875 C1362.67823581 1424.73631622 1361.69991749 1423.75418512 1360.72131348 1422.77233887 C1357.12501016 1419.16280682 1353.53423404 1415.54779294 1349.94329834 1411.93292236 C1346.89644421 1408.8661925 1343.84744874 1405.80162086 1340.79570007 1402.73976135 C1339.38241371 1401.32008843 1337.97222889 1399.89733001 1336.56213379 1398.4744873 C1332.80478622 1394.70294735 1329.05529216 1390.98119258 1325.01367188 1387.51367188 C1320.40546317 1383.55794778 1316.15319718 1379.26630725 1311.87966919 1374.95483398 C1310.40068091 1373.46285757 1308.91839498 1371.97422447 1307.43530273 1370.48632812 C1303.75552613 1366.79331846 1300.08127373 1363.09482888 1296.40686035 1359.39648438 C1293.28954371 1356.25929696 1290.17008912 1353.12426398 1287.04788208 1349.99194336 C1285.60134931 1348.53902092 1284.15790833 1347.08307719 1282.71459961 1345.62695312 C1278.28727032 1341.18327506 1273.80885918 1336.90792743 1269.04931641 1332.82446289 C1264.73412533 1328.98273988 1260.72162794 1324.82087994 1256.65625 1320.71875 C1255.67823581 1319.73631622 1254.69991749 1318.75418512 1253.72131348 1317.77233887 C1250.12501016 1314.16280682 1246.53423404 1310.54779294 1242.94329834 1306.93292236 C1239.89644421 1303.8661925 1236.84744874 1300.80162086 1233.79570007 1297.73976135 C1232.38241371 1296.32008843 1230.97222889 1294.89733001 1229.56213379 1293.4744873 C1225.80478622 1289.70294735 1222.05529216 1285.98119258 1218.01367188 1282.51367188 C1213.40546317 1278.55794778 1209.15319718 1274.26630725 1204.87966919 1269.95483398 C1203.40068091 1268.46285757 1201.91839498 1266.97422447 1200.43530273 1265.48632812 C1196.75552613 1261.79331846 1193.08127373 1258.09482888 1189.40686035 1254.39648438 C1186.28954371 1251.25929696 1183.17008912 1248.12426398 1180.04788208 1244.99194336 C1178.60134931 1243.53902092 1177.15790833 1242.08307719 1175.71459961 1240.62695312 C1171.28727032 1236.18327506 1166.80885918 1231.90792743 1162.04931641 1227.82446289 C1157.73412533 1223.98273988 1153.72162794 1219.82087994 1149.65625 1215.71875 C1148.67823581 1214.73631622 1147.69991749 1213.75418512 1146.72131348 1212.77233887 C1143.12501016 1209.16280682 1139.53423404 1205.54779294 1135.94329834 1201.93292236 C1132.89644421 1198.8661925 1129.84744874 1195.80162086 1126.79570007 1192.73976135 C1125.38241371 1191.32008843 1123.97222889 1189.89733001 1122.56213379 1188.4744873 C1118.80478622 1184.70294735 1115.05529216 1180.98119258 1111.01367188 1177.51367188 C1106.40546317 1173.55794778 1102.15319718 1169.26630725 1097.87966919 1164.95483398 C1096.40068091 1163.46285757 1094.91839498 1161.97422447 1093.43530273 1160.48632812 C1089.75552613 1156.79331846 1086.08127373 1153.09482888 1082.40686035 1149.39648438 C1079.28954371 1146.25929696 1076.17008912 1143.12426398 1073.04788208 1139.99194336 C1071.60134931 1138.53902092 1070.15790833 1137.08307719 1068.71459961 1135.62695312 C1064.2272468 1131.12302989 1059.68902496 1126.77734566 1054.86349487 1122.63864136 C1051.66131499 1119.82284375 1048.684978 1116.78808317 1045.69140625 1113.75390625 C1045.03921616 1113.09792953 1044.38702606 1112.44195282 1043.71507263 1111.76609802 C1041.66173293 1109.70067831 1039.61171986 1107.63200677 1037.5625 1105.5625 C1034.83746809 1102.81097166 1032.10919782 1100.06271438 1029.37890625 1097.31640625 C1028.75295059 1096.68215225 1028.12699493 1096.04789825 1027.48207092 1095.39442444 C1026.00682845 1093.91070304 1024.506079 1092.45241026 1023 1091 C1020.8198087 1091 1019.40812168 1093.46613329 1017.94389321 1094.92351295 Z " fill="#000000" transform="translate(0,0)"/>
</svg>
